<svg width="36" height="36" viewBox="0 0 36 36" fill="none" xmlns="http://www.w3.org/2000/svg">
<rect width="36" height="36" rx="18" fill="#EAF2FF"/>
<path d="M26 19C26 23.4182 22.4183 27 18 27C13.5817 27 10 23.4182 10 19M26 19C26 14.5817 22.4183 11 18 11C13.5817 11 10 14.5817 10 19M26 19H28M10 19H8M21 11L24.1984 9.08091C24.9205 8.64769 25.822 9.24625 25.7029 10.0798L25 15M15 11L11.8016 9.08091C11.0795 8.64769 10.178 9.24625 10.2971 10.0798L11 15M15 17V18M21 17V18M17 20H19M16.5 23C17.3284 23 18 22.3284 18 21.5M18 21.5C18 22.3284 18.6716 23 19.5 23M18 21.5V20M10 21L8 22M26 21L28 22" stroke="#006FFD" stroke-width="2" stroke-linecap="round"/>
</svg>
