<svg width="24" height="24" viewBox="0 0 24 24" fill="none" xmlns="http://www.w3.org/2000/svg">
<path d="M8.03402 4.93195L7.1396 4.48474L7.13959 4.48475L8.03402 4.93195ZM8.11554 4.76892L7.22112 4.3217L7.22112 4.3217L8.11554 4.76892ZM15.8845 4.76892L14.99 5.21613V5.21613L15.8845 4.76892ZM15.966 4.93195L16.8604 4.48475L16.8604 4.48474L15.966 4.93195ZM16.0491 4.99918L15.9215 5.99102L15.9216 5.99102L16.0491 4.99918ZM15.9788 4.95576L15.1487 5.51335L15.1487 5.51339L15.9788 4.95576ZM14.4161 3.10931L14.7421 2.16396L14.7421 2.16396L14.4161 3.10931ZM15.1634 3.57116L15.8631 2.85675V2.85674L15.1634 3.57116ZM8.83663 3.57116L8.13691 2.85675L8.13691 2.85675L8.83663 3.57116ZM9.58393 3.10931L9.91 4.05465H9.91L9.58393 3.10931ZM7.95095 4.99918L7.82343 4.00735L7.82343 4.00735L7.95095 4.99918ZM8.02121 4.95576L7.19113 4.39812L7.19111 4.39815L8.02121 4.95576ZM5.18404 20.564L5.63803 19.673H5.63803L5.18404 20.564ZM3.43597 18.816L4.32698 18.362L4.32698 18.362L3.43597 18.816ZM20.564 18.816L19.673 18.362V18.362L20.564 18.816ZM18.816 20.564L18.362 19.673H18.362L18.816 20.564ZM20.9344 8.27833L21.918 8.09791L21.9179 8.09791L20.9344 8.27833ZM17.7217 5.06564L17.5413 6.04923V6.04923L17.7217 5.06564ZM3.06564 8.27833L4.04923 8.45875L3.06564 8.27833ZM6.27833 5.06564L6.09791 4.08205L6.27833 5.06564ZM21 9.92392H20V14.6H21H22V9.92392H21ZM14.6 21V20H9.4V21V22H14.6V21ZM3 14.6H4V9.92392H3H2V14.6H3ZM8.03402 4.93195L8.92845 5.37917L9.00997 5.21613L8.11554 4.76892L7.22112 4.3217L7.1396 4.48474L8.03402 4.93195ZM10.9777 3V4H13.0223V3V2H10.9777V3ZM15.8845 4.76892L14.99 5.21613L15.0716 5.37917L15.966 4.93195L16.8604 4.48474L16.7789 4.3217L15.8845 4.76892ZM16.0761 5V4C16.072 4 16.0715 4 16.0717 4C16.0719 4 16.0768 4.00002 16.0838 4.00019C16.0986 4.00054 16.1328 4.00172 16.1765 4.00734L16.0491 4.99918L15.9216 5.99102C15.9717 5.99747 16.0125 5.99905 16.0357 5.99961C16.0547 6.00007 16.0738 6 16.0761 6V5ZM15.966 4.93195L15.0715 5.37916C15.0726 5.38119 15.081 5.39827 15.0899 5.41508C15.1008 5.43558 15.1205 5.4714 15.1487 5.51335L15.9788 4.95576L16.8089 4.39817C16.8335 4.43481 16.8499 4.46489 16.8568 4.4779C16.8601 4.48413 16.8623 4.48845 16.8624 4.48868C16.8625 4.48884 16.8623 4.48844 16.8604 4.48475L15.966 4.93195ZM16.0491 4.99918L16.1766 4.00735C16.4338 4.04042 16.6643 4.18286 16.8089 4.39813L15.9788 4.95576L15.1487 5.51339C15.3255 5.77651 15.6071 5.9506 15.9215 5.99102L16.0491 4.99918ZM13.0223 3V4C13.8127 4 13.9694 4.01305 14.09 4.05465L14.4161 3.10931L14.7421 2.16396C14.229 1.98695 13.6677 2 13.0223 2V3ZM15.8845 4.76892L16.7789 4.3217C16.4902 3.74443 16.2509 3.2366 15.8631 2.85675L15.1634 3.57116L14.4637 4.28558C14.5548 4.37487 14.6365 4.50917 14.99 5.21613L15.8845 4.76892ZM14.4161 3.10931L14.09 4.05465C14.2301 4.10299 14.3578 4.18187 14.4637 4.28558L15.1634 3.57116L15.8631 2.85674C15.5454 2.5456 15.1625 2.30896 14.7421 2.16396L14.4161 3.10931ZM8.11554 4.76892L9.00997 5.21613C9.36345 4.50917 9.44519 4.37487 9.53635 4.28558L8.83663 3.57116L8.13691 2.85675C7.74908 3.2366 7.50975 3.74443 7.22112 4.3217L8.11554 4.76892ZM10.9777 3V2C10.3323 2 9.77105 1.98695 9.25785 2.16396L9.58393 3.10931L9.91 4.05465C10.0306 4.01305 10.1873 4 10.9777 4V3ZM8.83663 3.57116L9.53635 4.28558C9.64224 4.18187 9.76987 4.10299 9.91 4.05465L9.58393 3.10931L9.25785 2.16396C8.83748 2.30896 8.4546 2.5456 8.13691 2.85675L8.83663 3.57116ZM7.92392 5V6C7.92619 6 7.94526 6.00007 7.96428 5.99961C7.98749 5.99905 8.02833 5.99747 8.07847 5.99102L7.95095 4.99918L7.82343 4.00735C7.86721 4.00172 7.90144 4.00054 7.91616 4.00019C7.92321 4.00002 7.92805 4 7.92831 4C7.92849 4 7.92805 4 7.92392 4V5ZM8.03402 4.93195L7.13959 4.48475C7.13774 4.48844 7.13754 4.48884 7.13762 4.48868C7.13774 4.48844 7.13992 4.48412 7.14323 4.47789C7.15014 4.46487 7.1665 4.43477 7.19113 4.39812L8.02121 4.95576L8.85129 5.51341C8.87948 5.47144 8.89917 5.4356 8.91005 5.41509C8.91897 5.39827 8.92744 5.38118 8.92846 5.37915L8.03402 4.93195ZM7.95095 4.99918L8.07846 5.99102C8.39287 5.9506 8.67455 5.77651 8.85131 5.51338L8.02121 4.95576L7.19111 4.39815C7.33573 4.18286 7.56619 4.04042 7.82343 4.00735L7.95095 4.99918ZM9.4 21V20C8.26339 20 7.47108 19.9992 6.85424 19.9488C6.24907 19.8994 5.90138 19.8072 5.63803 19.673L5.18404 20.564L4.73005 21.455C5.32234 21.7568 5.96253 21.8826 6.69138 21.9422C7.40855 22.0008 8.2964 22 9.4 22V21ZM3 14.6H2C2 15.7036 1.99922 16.5914 2.05782 17.3086C2.11737 18.0375 2.24318 18.6777 2.54497 19.27L3.43597 18.816L4.32698 18.362C4.19279 18.0986 4.10062 17.7509 4.05118 17.1458C4.00078 16.5289 4 15.7366 4 14.6H3ZM5.18404 20.564L5.63803 19.673C5.07354 19.3854 4.6146 18.9265 4.32698 18.362L3.43597 18.816L2.54497 19.27C3.02433 20.2108 3.78924 20.9757 4.73005 21.455L5.18404 20.564ZM21 14.6H20C20 15.7366 19.9992 16.5289 19.9488 17.1458C19.8994 17.7509 19.8072 18.0986 19.673 18.362L20.564 18.816L21.455 19.27C21.7568 18.6777 21.8826 18.0375 21.9422 17.3086C22.0008 16.5914 22 15.7036 22 14.6H21ZM14.6 21V22C15.7036 22 16.5914 22.0008 17.3086 21.9422C18.0375 21.8826 18.6777 21.7568 19.27 21.455L18.816 20.564L18.362 19.673C18.0986 19.8072 17.7509 19.8994 17.1458 19.9488C16.5289 19.9992 15.7366 20 14.6 20V21ZM20.564 18.816L19.673 18.362C19.3854 18.9265 18.9265 19.3854 18.362 19.673L18.816 20.564L19.27 21.455C20.2108 20.9757 20.9757 20.2108 21.455 19.27L20.564 18.816ZM21 9.92392H22C22 9.10965 22.0041 8.56777 21.918 8.09791L20.9344 8.27833L19.9508 8.45874C19.9959 8.70458 20 9.0212 20 9.92392H21ZM16.0761 5V6C16.9788 6 17.2954 6.00414 17.5413 6.04923L17.7217 5.06564L17.9021 4.08205C17.4322 3.99586 16.8904 4 16.0761 4V5ZM20.9344 8.27833L21.9179 8.09791C21.5433 6.05518 19.9448 4.45674 17.9021 4.08205L17.7217 5.06564L17.5413 6.04923C18.7669 6.27405 19.726 7.23311 19.9508 8.45875L20.9344 8.27833ZM3 9.92392H4C4 9.0212 4.00414 8.70458 4.04923 8.45875L3.06564 8.27833L2.08205 8.09791C1.99586 8.56777 2 9.10965 2 9.92392H3ZM7.92392 5V4C7.10965 4 6.56777 3.99586 6.09791 4.08205L6.27833 5.06564L6.45875 6.04923C6.70458 6.00414 7.0212 6 7.92392 6V5ZM3.06564 8.27833L4.04923 8.45875C4.27405 7.23311 5.23311 6.27405 6.45875 6.04923L6.27833 5.06564L6.09791 4.08205C4.05518 4.45674 2.45674 6.05518 2.08205 8.09791L3.06564 8.27833ZM16 13H15C15 14.6569 13.6569 16 12 16V17V18C14.7614 18 17 15.7614 17 13H16ZM12 17V16C10.3431 16 9 14.6569 9 13H8H7C7 15.7614 9.23858 18 12 18V17ZM8 13H9C9 11.3431 10.3431 10 12 10V9V8C9.23858 8 7 10.2386 7 13H8ZM12 9V10C13.6569 10 15 11.3431 15 13H16H17C17 10.2386 14.7614 8 12 8V9Z" fill="black"/>
</svg>
