<svg width="24" height="24" viewBox="0 0 24 24" fill="none" xmlns="http://www.w3.org/2000/svg">
<path d="M12 20.8037C16.9706 20.8037 21 16.7743 21 11.8037C21 6.83315 16.9706 2.80371 12 2.80371C7.02944 2.80371 3 6.83315 3 11.8037C3 12.9607 3.21832 14.0667 3.61601 15.0828C3.76547 15.4646 3.82957 15.8777 3.76147 16.2821L3.11667 20.111C3.05957 20.45 3.35374 20.7441 3.69276 20.687L7.5216 20.0422C7.92598 19.9741 8.33909 20.0382 8.72095 20.1877C9.73701 20.5854 10.843 20.8037 12 20.8037Z" stroke="black" stroke-width="2"/>
<path d="M15.2188 8.22266V16H13.5107L10.6211 11.7998H10.5674V16H8.52637V8.22266H10.2666L13.1133 12.4014H13.1777V8.22266H15.2188Z" fill="black"/>
</svg>
