<svg width="24" height="24" viewBox="0 0 24 24" fill="none" xmlns="http://www.w3.org/2000/svg">
<path d="M5.01149 16.9644L5.96017 17.2806H5.96017L5.01149 16.9644ZM5.76068 14.7168L4.81199 14.4006H4.81199L5.76068 14.7168ZM6.53372 13.466L7.24083 14.1731L7.24083 14.1731L6.53372 13.466ZM13.9996 6.00018L13.2925 5.29308V5.29308L13.9996 6.00018ZM17.9996 10.0002L18.7067 10.7073H18.7067L17.9996 10.0002ZM10.5337 17.466L9.82662 16.7589L9.82661 16.7589L10.5337 17.466ZM9.28291 18.2391L9.59914 19.1878H9.59914L9.28291 18.2391ZM7.03535 18.9883L7.35158 19.9369L7.35158 19.9369L7.03535 18.9883ZM10.1237 17.8488L9.52144 17.0504L9.52144 17.0504L10.1237 17.8488ZM9.80861 18.0435L9.3639 17.1478L9.80861 18.0435ZM18.9632 7.11215L18.0672 7.55617V7.55617L18.9632 7.11215ZM18.9632 8.88822L18.0672 8.4442V8.4442L18.9632 8.88822ZM15.1115 5.03658L15.5555 5.93259V5.93259L15.1115 5.03658ZM16.8876 5.03658L16.4436 5.93259V5.93259L16.8876 5.03658ZM5.95627 14.1911L6.85195 14.6358L6.85195 14.6358L5.95627 14.1911ZM6.151 13.8761L5.35268 13.2738L5.35268 13.2738L6.151 13.8761ZM4.6388 18.7549L3.69689 19.0908L4.6388 18.7549ZM5.24482 19.361L4.90894 20.3029L4.90894 20.3029L5.24482 19.361ZM13.7067 6.29311C13.3161 5.90259 12.683 5.90259 12.2924 6.29311C11.9019 6.68364 11.9019 7.3168 12.2924 7.70733L13.7067 6.29311ZM16.2924 11.7073C16.683 12.0979 17.3161 12.0979 17.7067 11.7073C18.0972 11.3168 18.0972 10.6836 17.7067 10.2931L16.2924 11.7073ZM11.9996 19.0002C11.4473 19.0002 10.9996 19.4479 10.9996 20.0002C10.9996 20.5525 11.4473 21.0002 11.9996 21.0002V19.0002ZM18.9996 21.0002C19.5518 21.0002 19.9996 20.5525 19.9996 20.0002C19.9996 19.4479 19.5518 19.0002 18.9996 19.0002V21.0002ZM5.01149 16.9644L5.96017 17.2806L6.70936 15.0331L5.76068 14.7168L4.81199 14.4006L4.06281 16.6482L5.01149 16.9644ZM6.53372 13.466L7.24083 14.1731L14.7067 6.70729L13.9996 6.00018L13.2925 5.29308L5.82662 12.7589L6.53372 13.466ZM17.9996 10.0002L17.2925 9.29308L9.82662 16.7589L10.5337 17.466L11.2408 18.1731L18.7067 10.7073L17.9996 10.0002ZM9.28291 18.2391L8.96668 17.2904L6.71912 18.0396L7.03535 18.9883L7.35158 19.9369L9.59914 19.1878L9.28291 18.2391ZM10.5337 17.466L9.82661 16.7589C9.60853 16.977 9.56433 17.0181 9.52144 17.0504L10.1237 17.8488L10.7259 18.6471C10.9055 18.5116 11.0605 18.3535 11.2408 18.1731L10.5337 17.466ZM9.28291 18.2391L9.59914 19.1878C9.84109 19.1071 10.0519 19.0392 10.2533 18.9392L9.80861 18.0435L9.3639 17.1478C9.31578 17.1717 9.25928 17.1929 8.96668 17.2904L9.28291 18.2391ZM10.1237 17.8488L9.52144 17.0504C9.47205 17.0877 9.41931 17.1203 9.3639 17.1478L9.80861 18.0435L10.2533 18.9392C10.4195 18.8566 10.5778 18.7588 10.7259 18.6471L10.1237 17.8488ZM17.9996 6.00019L17.2925 6.70729C17.8948 7.30963 18.0127 7.44619 18.0672 7.55617L18.9632 7.11215L19.8592 6.66814C19.6222 6.18993 19.1948 5.78124 18.7067 5.29308L17.9996 6.00019ZM17.9996 10.0002L18.7067 10.7073C19.1948 10.2191 19.6222 9.81044 19.8592 9.33223L18.9632 8.88822L18.0672 8.4442C18.0127 8.55418 17.8948 8.69074 17.2925 9.29308L17.9996 10.0002ZM18.9632 7.11215L18.0672 7.55617C18.2058 7.83595 18.2058 8.16442 18.0672 8.4442L18.9632 8.88822L19.8592 9.33223C20.2751 8.4929 20.2751 7.50747 19.8592 6.66814L18.9632 7.11215ZM13.9996 6.00018L14.7067 6.70729C15.309 6.10495 15.4456 5.98709 15.5555 5.93259L15.1115 5.03658L14.6675 4.14056C14.1893 4.37753 13.7806 4.80493 13.2925 5.29308L13.9996 6.00018ZM17.9996 6.00019L18.7067 5.29308C18.2185 4.80492 17.8098 4.37753 17.3316 4.14056L16.8876 5.03658L16.4436 5.93259C16.5536 5.98709 16.6901 6.10495 17.2925 6.70729L17.9996 6.00019ZM15.1115 5.03658L15.5555 5.93259C15.8353 5.79395 16.1638 5.79395 16.4436 5.93259L16.8876 5.03658L17.3316 4.14056C16.4923 3.72463 15.5068 3.72463 14.6675 4.14056L15.1115 5.03658ZM5.76068 14.7168L6.70936 15.0331C6.80689 14.7405 6.82806 14.684 6.85195 14.6358L5.95627 14.1911L5.06059 13.7464C4.96058 13.9479 4.89265 14.1587 4.81199 14.4006L5.76068 14.7168ZM6.53372 13.466L5.82662 12.7589C5.64628 12.9393 5.48813 13.0943 5.35268 13.2738L6.151 13.8761L6.94931 14.4783C6.98167 14.4354 7.02274 14.3912 7.24083 14.1731L6.53372 13.466ZM5.95627 14.1911L6.85195 14.6358C6.87946 14.5804 6.91205 14.5277 6.94931 14.4783L6.151 13.8761L5.35268 13.2738C5.24091 13.422 5.14313 13.5802 5.06059 13.7464L5.95627 14.1911ZM5.01149 16.9644L4.06281 16.6482C3.90626 17.1178 3.76595 17.5356 3.68608 17.8755C3.60969 18.2006 3.53752 18.6439 3.69689 19.0908L4.6388 18.7549L5.5807 18.419C5.62422 18.5411 5.57555 18.5777 5.63305 18.333C5.68706 18.1031 5.79102 17.7881 5.96017 17.2806L5.01149 16.9644ZM7.03535 18.9883L6.71912 18.0396C6.21166 18.2087 5.89662 18.3127 5.66675 18.3667C5.42205 18.4242 5.45867 18.3755 5.5807 18.419L5.24482 19.361L4.90894 20.3029C5.35585 20.4622 5.79919 20.3901 6.12426 20.3137C6.46416 20.2338 6.88194 20.0935 7.35158 19.9369L7.03535 18.9883ZM4.6388 18.7549L3.69689 19.0908C3.89853 19.6563 4.34349 20.1012 4.90894 20.3029L5.24482 19.361L5.5807 18.419L5.5807 18.419L4.6388 18.7549ZM12.9996 7.00022L12.2924 7.70733L16.2924 11.7073L16.9996 11.0002L17.7067 10.2931L13.7067 6.29311L12.9996 7.00022ZM11.9996 20.0002V21.0002H18.9996V20.0002V19.0002H11.9996V20.0002Z" fill="black"/>
</svg>
