<?xml version="1.0" standalone="no"?>
<!DOCTYPE svg PUBLIC "-//W3C//DTD SVG 20010904//EN"
 "http://www.w3.org/TR/2001/REC-SVG-20010904/DTD/svg10.dtd">
<svg version="1.0" xmlns="http://www.w3.org/2000/svg"
 width="512.000000pt" height="512.000000pt" viewBox="0 0 512.000000 512.000000"
 preserveAspectRatio="xMidYMid meet">

<g transform="translate(0.000000,512.000000) scale(0.100000,-0.100000)"
fill="#000000" stroke="none">
<path d="M651 4205 c-150 -33 -254 -83 -363 -175 -117 -97 -209 -237 -255
-385 l-28 -90 0 -995 0 -995 28 -90 c31 -101 90 -208 157 -288 98 -116 237
-208 385 -254 l90 -28 1895 0 1895 0 90 28 c331 103 565 404 569 733 1 93 -1
103 -26 141 -41 62 -90 88 -168 88 -121 0 -183 -63 -200 -204 -24 -191 -114
-312 -274 -368 -48 -17 -146 -18 -1886 -18 -1740 0 -1838 1 -1886 18 -113 39
-201 123 -246 234 l-23 58 0 945 0 945 23 58 c45 111 133 195 246 234 48 17
146 18 1886 18 1740 0 1838 -1 1886 -18 113 -39 201 -124 246 -234 22 -57 23
-68 28 -494 l5 -436 27 -40 c41 -62 90 -88 168 -88 78 0 127 26 168 88 l27 41
0 460 0 461 -28 90 c-80 259 -283 462 -542 542 l-90 28 -1870 2 c-1567 1
-1880 -1 -1934 -12z"/>
<path d="M932 3399 c-47 -14 -109 -80 -122 -130 -7 -26 -10 -98 -8 -184 3
-134 4 -144 30 -182 41 -62 90 -88 168 -88 51 0 73 5 103 24 46 28 83 82 92
134 l7 37 124 0 123 0 3 -588 3 -588 27 -41 c41 -62 90 -88 168 -88 78 0 127
26 168 88 l27 41 3 588 3 588 133 0 134 0 7 -37 c9 -52 46 -106 92 -134 57
-36 154 -34 210 3 22 15 51 44 64 65 23 36 24 47 24 203 0 156 -1 167 -24 203
-13 21 -42 50 -64 65 l-41 27 -710 2 c-431 1 -724 -2 -744 -8z"/>
<path d="M2452 2089 c-48 -14 -109 -80 -123 -131 -23 -89 12 -182 88 -229 57
-36 154 -34 210 3 62 41 88 90 88 168 0 77 -26 127 -85 166 -43 29 -125 39
-178 23z"/>
<path d="M3252 2089 c-48 -14 -109 -80 -123 -131 -23 -89 12 -182 88 -229 57
-36 154 -34 210 3 62 41 88 90 88 168 0 77 -26 127 -85 166 -43 29 -125 39
-178 23z"/>
<path d="M4052 2089 c-48 -14 -109 -80 -123 -131 -23 -89 12 -182 88 -229 57
-36 154 -34 210 3 62 41 88 90 88 168 0 77 -26 127 -85 166 -43 29 -125 39
-178 23z"/>
</g>
</svg>
