<svg width="24" height="24" viewBox="0 0 24 24" fill="none" xmlns="http://www.w3.org/2000/svg">
<path d="M6 7C6 7.55228 6.44772 8 7 8C7.55228 8 8 7.55228 8 7H6ZM8 17C8 16.4477 7.55228 16 7 16C6.44772 16 6 16.4477 6 17H8ZM8.09202 20.782L8.54601 19.891L8.54601 19.891L8.09202 20.782ZM7.21799 19.908L6.32698 20.362L7.21799 19.908ZM20.782 19.908L21.673 20.362L20.782 19.908ZM19.908 20.782L19.454 19.891L19.454 19.891L19.908 20.782ZM19.908 3.21799L19.454 4.10899V4.10899L19.908 3.21799ZM20.782 4.09202L19.891 4.54601V4.54601L20.782 4.09202ZM7.21799 4.09202L8.10899 4.54601L7.21799 4.09202ZM8.09202 3.21799L7.63803 2.32698V2.32698L8.09202 3.21799ZM2 11C1.44772 11 1 11.4477 1 12C1 12.5523 1.44772 13 2 13V11ZM13 13C13.5523 13 14 12.5523 14 12C14 11.4477 13.5523 11 13 11V13ZM12.8321 8.4453C12.5257 7.98577 11.9048 7.8616 11.4453 8.16795C10.9858 8.4743 10.8616 9.09517 11.1679 9.5547L12.8321 8.4453ZM13.8151 11.7227L12.983 12.2774L13.8151 11.7227ZM13.8151 12.2774L12.983 11.7227L13.8151 12.2774ZM11.1679 14.4453C10.8616 14.9048 10.9858 15.5257 11.4453 15.8321C11.9048 16.1384 12.5257 16.0142 12.8321 15.5547L11.1679 14.4453ZM7 7H8V6.2H7H6V7H7ZM10.2 3V4H17.8V3V2H10.2V3ZM21 6.2H20V17.8H21H22V6.2H21ZM17.8 21V20H10.2V21V22H17.8V21ZM7 17.8H8V17H7H6V17.8H7ZM10.2 21V20C9.62345 20 9.25117 19.9992 8.96784 19.9761C8.69617 19.9539 8.59545 19.9162 8.54601 19.891L8.09202 20.782L7.63803 21.673C8.01641 21.8658 8.40963 21.9371 8.80497 21.9694C9.18864 22.0008 9.65645 22 10.2 22V21ZM7 17.8H6C6 18.3436 5.99922 18.8114 6.03057 19.195C6.06287 19.5904 6.13419 19.9836 6.32698 20.362L7.21799 19.908L8.10899 19.454C8.0838 19.4045 8.04612 19.3038 8.02393 19.0322C8.00078 18.7488 8 18.3766 8 17.8H7ZM8.09202 20.782L8.54601 19.891C8.35785 19.7951 8.20487 19.6422 8.10899 19.454L7.21799 19.908L6.32698 20.362C6.6146 20.9265 7.07354 21.3854 7.63803 21.673L8.09202 20.782ZM21 17.8H20C20 18.3766 19.9992 18.7488 19.9761 19.0322C19.9539 19.3038 19.9162 19.4045 19.891 19.454L20.782 19.908L21.673 20.362C21.8658 19.9836 21.9371 19.5904 21.9694 19.195C22.0008 18.8114 22 18.3436 22 17.8H21ZM17.8 21V22C18.3436 22 18.8114 22.0008 19.195 21.9694C19.5904 21.9371 19.9836 21.8658 20.362 21.673L19.908 20.782L19.454 19.891C19.4045 19.9162 19.3038 19.9539 19.0322 19.9761C18.7488 19.9992 18.3766 20 17.8 20V21ZM20.782 19.908L19.891 19.454C19.7951 19.6422 19.6422 19.7951 19.454 19.891L19.908 20.782L20.362 21.673C20.9265 21.3854 21.3854 20.9265 21.673 20.362L20.782 19.908ZM17.8 3V4C18.3766 4 18.7488 4.00078 19.0322 4.02393C19.3038 4.04612 19.4045 4.0838 19.454 4.10899L19.908 3.21799L20.362 2.32698C19.9836 2.13419 19.5904 2.06287 19.195 2.03057C18.8114 1.99922 18.3436 2 17.8 2V3ZM21 6.2H22C22 5.65645 22.0008 5.18864 21.9694 4.80497C21.9371 4.40963 21.8658 4.01641 21.673 3.63803L20.782 4.09202L19.891 4.54601C19.9162 4.59545 19.9539 4.69617 19.9761 4.96784C19.9992 5.25117 20 5.62345 20 6.2H21ZM19.908 3.21799L19.454 4.10899C19.6422 4.20487 19.7951 4.35785 19.891 4.54601L20.782 4.09202L21.673 3.63803C21.3854 3.07354 20.9265 2.6146 20.362 2.32698L19.908 3.21799ZM7 6.2H8C8 5.62345 8.00078 5.25117 8.02393 4.96784C8.04612 4.69617 8.0838 4.59545 8.10899 4.54601L7.21799 4.09202L6.32698 3.63803C6.13419 4.01641 6.06287 4.40963 6.03057 4.80497C5.99922 5.18864 6 5.65645 6 6.2H7ZM10.2 3V2C9.65645 2 9.18864 1.99922 8.80497 2.03057C8.40963 2.06287 8.01641 2.13419 7.63803 2.32698L8.09202 3.21799L8.54601 4.10899C8.59545 4.0838 8.69617 4.04612 8.96784 4.02393C9.25117 4.00078 9.62345 4 10.2 4V3ZM7.21799 4.09202L8.10899 4.54601C8.20487 4.35785 8.35785 4.20487 8.54601 4.10899L8.09202 3.21799L7.63803 2.32698C7.07354 2.6146 6.6146 3.07354 6.32698 3.63803L7.21799 4.09202ZM2 12V13H13V12V11H2V12ZM12 9L11.1679 9.5547L12.983 12.2774L13.8151 11.7227L14.6472 11.168L12.8321 8.4453L12 9ZM13.8151 12.2774L12.983 11.7227L11.1679 14.4453L12 15L12.8321 15.5547L14.6472 12.8321L13.8151 12.2774ZM13.8151 11.7227L12.983 12.2774C12.8711 12.1094 12.8711 11.8906 12.983 11.7227L13.8151 12.2774L14.6472 12.8321C14.983 12.3282 14.983 11.6718 14.6472 11.168L13.8151 11.7227Z" fill="black"/>
</svg>
