<svg width="24" height="24" viewBox="0 0 24 24" fill="none" xmlns="http://www.w3.org/2000/svg">
<path d="M5.99966 7C5.99966 7.55228 6.44738 8 6.99966 8C7.55195 8 7.99966 7.55228 7.99966 7H5.99966ZM7.99966 17C7.99966 16.4477 7.55195 16 6.99966 16C6.44738 16 5.99966 16.4477 5.99966 17H7.99966ZM8.09168 20.782L8.54567 19.891L8.54567 19.891L8.09168 20.782ZM7.21765 19.908L6.32664 20.362L7.21765 19.908ZM20.7817 19.908L21.6727 20.362L20.7817 19.908ZM19.9076 20.782L19.4537 19.891L19.4537 19.891L19.9076 20.782ZM19.9076 3.21799L19.4537 4.10899V4.10899L19.9076 3.21799ZM20.7817 4.09202L19.8907 4.54601V4.54601L20.7817 4.09202ZM7.21765 4.09202L8.10865 4.54601L7.21765 4.09202ZM8.09168 3.21799L7.63769 2.32698V2.32698L8.09168 3.21799ZM13.9997 13C14.5519 13 14.9997 12.5523 14.9997 12C14.9997 11.4477 14.5519 11 13.9997 11V13ZM2.99966 11C2.44738 11 1.99966 11.4477 1.99966 12C1.99966 12.5523 2.44738 13 2.99966 13V11ZM4.83171 9.5547C5.13806 9.09517 5.01389 8.4743 4.55436 8.16795C4.09483 7.8616 3.47396 7.98577 3.16761 8.4453L4.83171 9.5547ZM2.18456 11.7227L3.01661 12.2774H3.01661L2.18456 11.7227ZM2.18456 12.2774L3.01661 11.7227L2.18456 12.2774ZM3.16761 15.5547C3.47396 16.0142 4.09483 16.1384 4.55436 15.8321C5.01389 15.5257 5.13806 14.9048 4.83171 14.4453L3.16761 15.5547ZM6.99966 7H7.99966V6.2H6.99966H5.99966V7H6.99966ZM10.1997 3V4H17.7997V3V2H10.1997V3ZM20.9997 6.2H19.9997V17.8H20.9997H21.9997V6.2H20.9997ZM17.7997 21V20H10.1997V21V22H17.7997V21ZM6.99966 17.8H7.99966V17H6.99966H5.99966V17.8H6.99966ZM10.1997 21V20C9.62311 20 9.25083 19.9992 8.9675 19.9761C8.69583 19.9539 8.59511 19.9162 8.54567 19.891L8.09168 20.782L7.63769 21.673C8.01607 21.8658 8.40929 21.9371 8.80463 21.9694C9.1883 22.0008 9.65611 22 10.1997 22V21ZM6.99966 17.8H5.99966C5.99966 18.3436 5.99888 18.8114 6.03023 19.195C6.06253 19.5904 6.13385 19.9836 6.32664 20.362L7.21765 19.908L8.10865 19.454C8.08346 19.4045 8.04578 19.3038 8.02359 19.0322C8.00044 18.7488 7.99966 18.3766 7.99966 17.8H6.99966ZM8.09168 20.782L8.54567 19.891C8.35751 19.7951 8.20453 19.6422 8.10865 19.454L7.21765 19.908L6.32664 20.362C6.61426 20.9265 7.0732 21.3854 7.63769 21.673L8.09168 20.782ZM20.9997 17.8H19.9997C19.9997 18.3766 19.9989 18.7488 19.9757 19.0322C19.9535 19.3038 19.9159 19.4045 19.8907 19.454L20.7817 19.908L21.6727 20.362C21.8655 19.9836 21.9368 19.5904 21.9691 19.195C22.0004 18.8114 21.9997 18.3436 21.9997 17.8H20.9997ZM17.7997 21V22C18.3432 22 18.811 22.0008 19.1947 21.9694C19.59 21.9371 19.9833 21.8658 20.3616 21.673L19.9076 20.782L19.4537 19.891C19.4042 19.9162 19.3035 19.9539 19.0318 19.9761C18.7485 19.9992 18.3762 20 17.7997 20V21ZM20.7817 19.908L19.8907 19.454C19.7948 19.6422 19.6418 19.7951 19.4537 19.891L19.9076 20.782L20.3616 21.673C20.9261 21.3854 21.3851 20.9265 21.6727 20.362L20.7817 19.908ZM17.7997 3V4C18.3762 4 18.7485 4.00078 19.0318 4.02393C19.3035 4.04612 19.4042 4.0838 19.4537 4.10899L19.9076 3.21799L20.3616 2.32698C19.9833 2.13419 19.59 2.06287 19.1947 2.03057C18.811 1.99922 18.3432 2 17.7997 2V3ZM20.9997 6.2H21.9997C21.9997 5.65645 22.0004 5.18864 21.9691 4.80497C21.9368 4.40963 21.8655 4.01641 21.6727 3.63803L20.7817 4.09202L19.8907 4.54601C19.9159 4.59545 19.9535 4.69617 19.9757 4.96784C19.9989 5.25117 19.9997 5.62345 19.9997 6.2H20.9997ZM19.9076 3.21799L19.4537 4.10899C19.6418 4.20487 19.7948 4.35785 19.8907 4.54601L20.7817 4.09202L21.6727 3.63803C21.3851 3.07354 20.9261 2.6146 20.3616 2.32698L19.9076 3.21799ZM6.99966 6.2H7.99966C7.99966 5.62345 8.00044 5.25117 8.02359 4.96784C8.04578 4.69617 8.08346 4.59545 8.10865 4.54601L7.21765 4.09202L6.32664 3.63803C6.13385 4.01641 6.06253 4.40963 6.03023 4.80497C5.99888 5.18864 5.99966 5.65645 5.99966 6.2H6.99966ZM10.1997 3V2C9.65611 2 9.1883 1.99922 8.80463 2.03057C8.40929 2.06287 8.01607 2.13419 7.63769 2.32698L8.09168 3.21799L8.54567 4.10899C8.59511 4.0838 8.69583 4.04612 8.9675 4.02393C9.25083 4.00078 9.62311 4 10.1997 4V3ZM7.21765 4.09202L8.10865 4.54601C8.20453 4.35785 8.35751 4.20487 8.54567 4.10899L8.09168 3.21799L7.63769 2.32698C7.0732 2.6146 6.61426 3.07354 6.32664 3.63803L7.21765 4.09202ZM13.9997 12V11H2.99966V12V13H13.9997V12ZM3.99966 9L3.16761 8.4453L1.35251 11.168L2.18456 11.7227L3.01661 12.2774L4.83171 9.5547L3.99966 9ZM2.18456 12.2774L1.35251 12.8321L3.16761 15.5547L3.99966 15L4.83171 14.4453L3.01661 11.7227L2.18456 12.2774ZM2.18456 11.7227L1.35251 11.168C1.01661 11.6718 1.01661 12.3282 1.35251 12.8321L2.18456 12.2774L3.01661 11.7227C3.12858 11.8906 3.12858 12.1094 3.01661 12.2774L2.18456 11.7227Z" fill="black"/>
</svg>
