<?xml version="1.0" standalone="no"?>
<!DOCTYPE svg PUBLIC "-//W3C//DTD SVG 20010904//EN"
 "http://www.w3.org/TR/2001/REC-SVG-20010904/DTD/svg10.dtd">
<svg version="1.0" xmlns="http://www.w3.org/2000/svg"
 width="200.000000pt" height="200.000000pt" viewBox="0 0 200.000000 200.000000"
 preserveAspectRatio="xMidYMid meet">

<g transform="translate(0.000000,200.000000) scale(0.100000,-0.100000)"
fill="#000000" stroke="none">
<path d="M762 1716 c-60 -19 -115 -60 -146 -107 -14 -21 -26 -43 -26 -48 0 -5
-44 -11 -97 -13 -125 -6 -184 -30 -252 -104 -81 -88 -81 -90 -81 -539 l0 -392
31 -61 c37 -74 102 -134 172 -159 48 -17 99 -18 637 -18 538 0 589 1 637 18
66 23 131 80 168 148 l30 54 3 399 c3 459 3 460 -79 550 -67 74 -127 98 -250
104 -94 4 -95 4 -108 34 -19 43 -77 97 -130 122 -42 19 -66 21 -256 23 -157 2
-221 -1 -253 -11z m454 -152 c39 -19 62 -56 72 -117 l8 -42 144 -5 c155 -5
171 -10 214 -60 44 -53 47 -87 44 -453 -3 -382 -3 -379 -75 -434 l-36 -28
-587 0 -587 0 -36 28 c-72 55 -72 52 -75 434 -3 366 0 400 44 453 43 50 59 55
214 60 l145 5 8 48 c19 114 47 126 285 127 150 0 190 -3 218 -16z"/>
<path d="M913 1296 c-51 -16 -101 -47 -131 -79 l-22 -24 48 -40 48 -41 42 28
c87 58 198 45 266 -30 62 -69 73 -120 27 -120 -17 0 -32 -4 -35 -9 -5 -8 142
-147 148 -140 1 2 30 34 64 71 34 37 62 72 62 78 0 5 -16 10 -35 10 -30 0 -35
4 -41 28 -24 108 -97 202 -191 248 -66 33 -183 42 -250 20z"/>
<path d="M637 992 c-37 -37 -67 -73 -67 -80 0 -7 15 -12 39 -12 37 0 39 -2 46
-37 16 -89 84 -187 166 -239 59 -37 144 -57 219 -52 74 6 175 46 211 84 l23
25 -47 47 c-44 44 -48 46 -70 33 -75 -48 -134 -60 -202 -41 -74 21 -155 104
-155 160 0 15 6 20 28 20 16 0 32 3 36 7 8 8 -133 153 -149 153 -6 0 -41 -30
-78 -68z"/>
</g>
</svg>
