<svg width="24" height="24" viewBox="0 0 24 24" fill="none" xmlns="http://www.w3.org/2000/svg">
<path d="M18.8925 18.0357L19.8925 18.0446L18.8925 18.0357ZM4 5C3.44772 5 3 5.44772 3 6C3 6.55228 3.44772 7 4 7V5ZM20 7C20.5523 7 21 6.55228 21 6C21 5.44772 20.5523 5 20 5V7ZM11 10C11 9.44772 10.5523 9 10 9C9.44772 9 9 9.44772 9 10H11ZM9 18C9 18.5523 9.44772 19 10 19C10.5523 19 11 18.5523 11 18H9ZM15 10C15 9.44772 14.5523 9 14 9C13.4477 9 13 9.44772 13 10H15ZM13 18C13 18.5523 13.4477 19 14 19C14.5523 19 15 18.5523 15 18H13ZM19 6L18 5.99107L17.8926 18.0268L18.8925 18.0357L19.8925 18.0446L20 6.00893L19 6ZM14.8927 22V21H9V22V23H14.8927V22ZM5 6H4V18H5H6V6H5ZM4 6V7H5V6V5H4V6ZM5 6V7H8V6V5H5V6ZM8 6V7H16V6V5H8V6ZM16 6V7H19V6V5H16V6ZM19 6V7H20V6V5H19V6ZM8 5.55556H9C9 4.25163 10.2292 3 12 3V2V1C9.35256 1 7 2.93212 7 5.55556H8ZM12 2V3C13.7708 3 15 4.25163 15 5.55556H16H17C17 2.93212 14.6474 1 12 1V2ZM8 5.55556H7V6H8H9V5.55556H8ZM16 5.55556H15V6H16H17V5.55556H16ZM9 22V21C7.34314 21 6 19.6569 6 18H5H4C4 20.7614 6.23857 23 9 23V22ZM18.8925 18.0357L17.8926 18.0268C17.8779 19.6731 16.5391 21 14.8927 21V22V23C17.6367 23 19.868 20.7885 19.8925 18.0446L18.8925 18.0357ZM10 10H9V18H10H11V10H10ZM14 10H13V18H14H15V10H14Z" fill="black"/>
</svg>
